<svg width="180" height="48" viewBox="0 0 180 48" fill="none" xmlns="http://www.w3.org/2000/svg">
<rect x="1.18896" y="0.276367" width="178.508" height="45.8445" rx="3.43285" transform="rotate(0.464961 1.18896 0.276367)" fill="black"/>
<path d="M66.4741 17.1467H61.7448V28.9697H66.4741C69.7339 28.9697 72.2167 26.4024 72.2167 23.0582C72.2167 19.714 69.7339 17.1467 66.4741 17.1467ZM66.4741 26.3687H64.4473V19.7478H66.4741C68.332 19.7478 69.6156 21.0314 69.6156 23.0582C69.6156 25.085 68.332 26.3687 66.4741 26.3687ZM79.3774 29.2062C82.7723 29.2062 85.5254 26.5376 85.5254 23.0582C85.5254 19.5788 82.7723 16.9102 79.3774 16.9102C75.9825 16.9102 73.2294 19.5788 73.2294 23.0582C73.2294 26.5376 75.9825 29.2062 79.3774 29.2062ZM79.3774 26.5713C77.452 26.5713 75.9318 25.1695 75.9318 23.0582C75.9318 20.9469 77.452 19.5451 79.3774 19.5451C81.3029 19.5451 82.823 20.9469 82.823 23.0582C82.823 25.1695 81.3029 26.5713 79.3774 26.5713ZM88.9509 28.9697H92.0249L93.9504 21.9941L95.8758 28.9697H98.9498L102.21 17.1467H99.3721L97.3284 25.4228L95.0482 17.1467H92.8525L90.5724 25.4228L88.5287 17.1467H85.6911L88.9509 28.9697ZM109.98 17.1467V23.5649L105.42 17.1467H103.393V28.9697H106.095V22.5515L110.655 28.9697H112.682V17.1467H109.98ZM117.41 26.3687V17.1467H114.708V28.9697H121.633V26.3687H117.41ZM127.788 29.2062C131.183 29.2062 133.936 26.5376 133.936 23.0582C133.936 19.5788 131.183 16.9102 127.788 16.9102C124.393 16.9102 121.64 19.5788 121.64 23.0582C121.64 26.5376 124.393 29.2062 127.788 29.2062ZM127.788 26.5713C125.862 26.5713 124.342 25.1695 124.342 23.0582C124.342 20.9469 125.862 19.5451 127.788 19.5451C129.713 19.5451 131.233 20.9469 131.233 23.0582C131.233 25.1695 129.713 26.5713 127.788 26.5713ZM142.545 28.9697H145.5L141.481 17.1467H138.035L134.015 28.9697H136.971L137.562 27.1118H141.954L142.545 28.9697ZM138.373 24.5783L139.758 20.2376L141.143 24.5783H138.373ZM151.238 17.1467H146.509V28.9697H151.238C154.498 28.9697 156.98 26.4024 156.98 23.0582C156.98 19.714 154.498 17.1467 151.238 17.1467ZM151.238 26.3687H149.211V19.7478H151.238C153.096 19.7478 154.379 21.0314 154.379 23.0582C154.379 25.085 153.096 26.3687 151.238 26.3687Z" fill="white"/>
<path d="M39.6458 23.0232L43.4524 19.6492L31.1572 13.5241C30.3423 13.1339 29.579 13.0791 28.9096 13.5059L39.6458 23.0232ZM44.1012 26.9735L48.0584 25.0006C48.8308 24.6172 49.2543 24.0741 49.2543 23.4716C49.2543 22.8703 48.8308 22.326 48.0597 21.9427L44.4771 20.1592L40.4439 23.7329L44.1012 26.9735ZM28.2479 14.3354C28.1655 14.5602 28.1191 14.8112 28.1191 15.0862V31.8651C28.1191 32.2998 28.2273 32.6741 28.4229 32.9719L38.8464 23.7318L28.2479 14.3354ZM39.6458 24.4392L29.2803 33.628C29.4785 33.6953 29.6922 33.7307 29.9175 33.7307C30.3192 33.7307 30.7375 33.6257 31.1637 33.4157L43.0778 27.4858L39.6458 24.4392Z" fill="white"/>
</svg>
