<svg width="179" height="46" viewBox="0 0 179 46" fill="none" xmlns="http://www.w3.org/2000/svg">
<rect x="0.105469" width="178.508" height="46.0002" rx="3.43285" fill="black"/>
<path d="M64.893 16.8337H60.1638V28.6567H64.893C68.1528 28.6567 70.6356 26.0894 70.6356 22.7452C70.6356 19.401 68.1528 16.8337 64.893 16.8337ZM64.893 26.0557H62.8662V19.4348H64.893C66.7509 19.4348 68.0346 20.7184 68.0346 22.7452C68.0346 24.772 66.7509 26.0557 64.893 26.0557ZM77.7964 28.8932C81.1913 28.8932 83.9443 26.2246 83.9443 22.7452C83.9443 19.2659 81.1913 16.5972 77.7964 16.5972C74.4015 16.5972 71.6484 19.2659 71.6484 22.7452C71.6484 26.2246 74.4015 28.8932 77.7964 28.8932ZM77.7964 26.2583C75.8709 26.2583 74.3508 24.8565 74.3508 22.7452C74.3508 20.634 75.8709 19.2321 77.7964 19.2321C79.7218 19.2321 81.2419 20.634 81.2419 22.7452C81.2419 24.8565 79.7218 26.2583 77.7964 26.2583ZM87.3699 28.6567H90.4439L92.3693 21.6811L94.2948 28.6567H97.3688L100.629 16.8337H97.791L95.7473 25.1098L93.4672 16.8337H91.2715L88.9913 25.1098L86.9476 16.8337H84.1101L87.3699 28.6567ZM108.399 16.8337V23.2519L103.838 16.8337H101.812V28.6567H104.514V22.2385L109.074 28.6567H111.101V16.8337H108.399ZM115.829 26.0557V16.8337H113.127V28.6567H120.052V26.0557H115.829ZM126.207 28.8932C129.602 28.8932 132.355 26.2246 132.355 22.7452C132.355 19.2659 129.602 16.5972 126.207 16.5972C122.812 16.5972 120.059 19.2659 120.059 22.7452C120.059 26.2246 122.812 28.8932 126.207 28.8932ZM126.207 26.2583C124.281 26.2583 122.761 24.8565 122.761 22.7452C122.761 20.634 124.281 19.2321 126.207 19.2321C128.132 19.2321 129.652 20.634 129.652 22.7452C129.652 24.8565 128.132 26.2583 126.207 26.2583ZM140.964 28.6567H143.919L139.9 16.8337H136.454L132.434 28.6567H135.39L135.981 26.7988H140.372L140.964 28.6567ZM136.792 24.2653L138.177 19.9246L139.562 24.2653H136.792ZM149.657 16.8337H144.928V28.6567H149.657C152.917 28.6567 155.399 26.0894 155.399 22.7452C155.399 19.401 152.917 16.8337 149.657 16.8337ZM149.657 26.0557H147.63V19.4348H149.657C151.515 19.4348 152.798 20.7184 152.798 22.7452C152.798 24.772 151.515 26.0557 149.657 26.0557Z" fill="white"/>
<path d="M36.1503 34.0418C29.6724 34.0418 24.4214 28.7908 24.4214 22.3129C24.4214 15.835 29.6724 10.584 36.1503 10.584C42.6282 10.584 47.8792 15.835 47.8792 22.3129C47.8722 28.7873 42.6247 34.0348 36.1503 34.0418ZM31.1385 25.5817C30.9872 25.5817 30.8371 25.6005 30.6893 25.6357L30.5134 25.6838L29.8167 26.8766C29.6894 27.0889 29.6486 27.3419 29.7025 27.5835C29.7565 27.825 29.9012 28.0366 30.1067 28.1745C30.3122 28.3124 30.5629 28.3661 30.8068 28.3245C31.0508 28.2829 31.2695 28.1492 31.4177 27.951L31.4904 27.8419L32.417 26.2339C32.2668 26.033 32.0722 25.8696 31.8484 25.7565C31.6245 25.6434 31.3776 25.5836 31.1268 25.5817H31.1385ZM37.5707 18.3954C37.2057 18.7382 36.9638 19.1916 36.8822 19.6856C36.7514 20.3668 36.8767 21.0722 37.234 21.6666L40.7996 27.8431C40.9237 28.0519 41.1216 28.2065 41.3542 28.2764C41.5868 28.3464 41.8372 28.3265 42.0558 28.2207C42.2738 28.1132 42.4432 27.9274 42.5302 27.7004C42.6172 27.4734 42.6153 27.2219 42.525 26.9962L42.4675 26.879L41.5292 25.2475H42.9249C43.1693 25.2454 43.4039 25.1507 43.5812 24.9825C43.7585 24.8142 43.8654 24.585 43.8803 24.341C43.8952 24.097 43.817 23.8565 43.6614 23.6679C43.5059 23.4794 43.2846 23.3568 43.0422 23.3251L42.9249 23.3181H40.4149L37.8416 18.8611L37.573 18.3919L37.5707 18.3954ZM29.4179 23.3099C29.2919 23.3102 29.1671 23.3353 29.0508 23.3839C28.9345 23.4325 28.829 23.5036 28.7402 23.593C28.6514 23.6825 28.5811 23.7885 28.5334 23.9052C28.4856 24.0218 28.4614 24.1468 28.462 24.2728C28.462 24.7584 28.8232 25.1689 29.3053 25.231L29.4226 25.2369H38.1958C38.2929 25.0419 38.3418 24.8265 38.3383 24.6087C38.3348 24.391 38.2791 24.1772 38.1759 23.9854C38.0881 23.8058 37.9572 23.6506 37.7949 23.5338C37.6327 23.4169 37.444 23.342 37.2458 23.3157L37.1039 23.3087H34.1118L38.2498 16.1435C38.3772 15.9214 38.4118 15.6579 38.3459 15.4104C38.2991 15.2368 38.2047 15.0796 38.0734 14.9567C37.9421 14.8337 37.7791 14.7498 37.6028 14.7145C37.4264 14.6792 37.2436 14.6937 37.0751 14.7566C36.9066 14.8194 36.7589 14.9281 36.6488 15.0703L36.5761 15.1782L36.1503 15.9218L35.7292 15.1782C35.6051 14.9691 35.407 14.8143 35.1742 14.7443C34.9413 14.6744 34.6907 14.6944 34.4719 14.8005C34.254 14.9085 34.0847 15.0945 33.9978 15.3217C33.9108 15.5488 33.9126 15.8003 34.0027 16.0262L34.0602 16.1435L35.0337 17.8559L31.8845 23.3099H29.4179Z" fill="white"/>
</svg>
