<svg width="63" height="63" viewBox="0 0 63 63" fill="none" xmlns="http://www.w3.org/2000/svg">
<path d="M23.1573 43H39.3924V37.7474H31.3772L35.3336 33.7569C37.5165 31.574 39.0513 29.1182 39.0513 26.2532C39.0513 21.4441 35.2313 18.6472 30.9679 18.6472C27.6594 18.6472 24.4533 20.3185 22.9185 23.8657L27.523 26.5602C28.1711 25.0595 29.3648 23.968 31.0361 23.968C32.6391 23.968 33.5941 24.9912 33.5941 26.492C33.5941 27.8904 32.5709 29.2888 31.1725 30.7213L23.1573 39.0435V43Z" fill="#75BF7A"/>
<path d="M3.46094 19.6904L9.17969 25.4395L9.28906 25.5488L9.25 25.6992C8.77213 27.5212 8.53226 29.4343 8.53223 31.4092C8.53223 44.0285 18.7894 54.2869 31.4395 54.2871C44.0592 54.2871 54.3174 44.0289 54.3174 31.4092C54.3173 29.4651 54.0776 27.5822 53.5996 25.7598L53.5605 25.6094L53.6699 25.5L59.3887 19.751L59.6758 19.4619L59.8301 19.8389C61.2958 23.4115 62.0898 27.3195 62.0898 31.4092C62.0898 48.3216 48.3216 62.0898 31.4092 62.0898C14.497 62.0896 0.729492 48.3214 0.729492 31.4092C0.729549 27.2879 1.55372 23.3804 3.01855 19.7793L3.17285 19.4014L3.46094 19.6904ZM31.4092 0.729492C41.5143 0.729492 50.4894 5.6453 56.0752 13.1846L56.2139 13.3721L50.6123 18.9736L50.4297 18.7002C46.96 13.5256 41.4265 9.81835 34.998 8.80176V8.80078C33.8326 8.62156 32.636 8.53223 31.4092 8.53223C30.1822 8.53225 28.9859 8.6215 27.8203 8.80078L27.8213 8.80176C21.4224 9.8184 15.8892 13.4959 12.4199 18.6699L12.2373 18.9434L6.7998 13.5059L6.63477 13.3418L6.77441 13.1543C12.3604 5.61483 21.3349 0.72963 31.4092 0.729492Z" fill="#75BF7A" stroke="#75BF7A" stroke-width="0.540615"/>
</svg>
