<svg width="132" height="38" viewBox="0 0 132 38" fill="none" xmlns="http://www.w3.org/2000/svg">
<path d="M55.4964 14.2009H51.1745V36H46.2353V14.2009H42.6734V9.68914H46.2353V0.85553H51.1745V9.68914H55.4964V14.2009ZM84.3881 22.5121C84.3881 23.3353 84.3406 24.1585 84.2457 24.9817H62.4466C62.9532 27.0714 63.9822 28.797 65.5336 30.1584C67.1167 31.4882 68.9689 32.1531 71.0902 32.1531C72.6416 32.1531 74.0981 31.7573 75.4595 30.9658C76.8527 30.1742 77.8975 29.0978 78.594 27.7363H83.5333C82.5201 30.4275 80.8737 32.5964 78.594 34.2428C76.3144 35.8575 73.7498 36.6649 70.9003 36.6649C67.1958 36.6649 64.0297 35.2876 61.4018 32.533C58.8055 29.7785 57.5074 26.5332 57.5074 22.7971C57.5074 18.966 58.8055 15.7049 61.4018 13.0136C63.998 10.3224 67.1958 8.97675 70.9952 8.97675C74.6997 8.97675 77.85 10.3065 80.4463 12.9661C83.0742 15.6257 84.3881 18.8077 84.3881 22.5121ZM79.4489 21.1823C79.3223 19.0293 78.4041 17.2088 76.6943 15.7207C75.0163 14.2326 73.1007 13.4885 70.9477 13.4885C68.7948 13.4885 66.8634 14.2326 65.1537 15.7207C63.4756 17.2088 62.5732 19.0293 62.4466 21.1823H79.4489ZM100.707 14.0585C99.4718 14.0585 98.2845 14.3751 97.1447 15.0083C95.2133 15.9898 94.2477 18.1903 94.2477 21.6098V36H89.3084V9.68914H93.9152V12.0638H94.0102C95.4033 10.1007 97.6355 9.07174 100.707 8.97675V14.0585ZM129.701 22.5121C129.701 23.3353 129.653 24.1585 129.558 24.9817H107.759C108.266 27.0714 109.295 28.797 110.846 30.1584C112.429 31.4882 114.282 32.1531 116.403 32.1531C117.954 32.1531 119.411 31.7573 120.772 30.9658C122.165 30.1742 123.21 29.0978 123.907 27.7363H128.846C127.833 30.4275 126.186 32.5964 123.907 34.2428C121.627 35.8575 119.063 36.6649 116.213 36.6649C112.509 36.6649 109.342 35.2876 106.714 32.533C104.118 29.7785 102.82 26.5332 102.82 22.7971C102.82 18.966 104.118 15.7049 106.714 13.0136C109.311 10.3224 112.509 8.97675 116.308 8.97675C120.012 8.97675 123.163 10.3065 125.759 12.9661C128.387 15.6257 129.701 18.8077 129.701 22.5121ZM124.762 21.1823C124.635 19.0293 123.717 17.2088 122.007 15.7207C120.329 14.2326 118.413 13.4885 116.26 13.4885C114.107 13.4885 112.176 14.2326 110.466 15.7207C108.788 17.2088 107.886 19.0293 107.759 21.1823H124.762Z" fill="black"/>
<path d="M2.46582 11.8584L5.87109 15.2822L5.93652 15.3477L5.91309 15.4365C5.62851 16.5215 5.48537 17.6608 5.48535 18.8369C5.48535 26.3521 11.5944 32.4609 19.1279 32.4609C26.6431 32.4608 32.752 26.3521 32.752 18.8369C32.7519 17.6792 32.6089 16.5579 32.3242 15.4727L32.3008 15.3828L32.3662 15.3184L35.7715 11.8945L35.9424 11.7227L36.0352 11.9463C36.908 14.0739 37.3799 16.4014 37.3799 18.8369C37.3799 28.9086 29.1811 37.1074 19.1094 37.1074C9.03777 37.1073 0.838867 28.9085 0.838867 18.8369C0.838899 16.3826 1.32982 14.0556 2.20215 11.9111L2.29395 11.6855L2.46582 11.8584ZM19.1094 0.566406C25.1272 0.566406 30.4723 3.49363 33.7988 7.9834L33.8809 8.09473L33.7832 8.19336L30.5449 11.4316L30.4365 11.2686C28.4349 8.28336 25.2801 6.11747 21.6045 5.43457L21.2471 5.37305C20.5529 5.26627 19.8401 5.21289 19.1094 5.21289C18.3786 5.2129 17.6659 5.26527 16.9717 5.37207L16.9727 5.37305C13.1621 5.97847 9.86685 8.16887 7.80078 11.25L7.69141 11.4131L7.55371 11.2744L4.4541 8.17578L4.35547 8.07715L4.43848 7.96582C7.76507 3.47583 13.1099 0.566483 19.1094 0.566406Z" fill="black" stroke="black" stroke-width="0.321949"/>
<path d="M21.4387 19.4277H16.7922L16.7922 2.3291L21.4387 2.3291L21.4387 19.4277Z" fill="black" stroke="black" stroke-width="0.321949"/>
</svg>
